<svg width="32" height="32" viewBox="0 0 32 32" fill="none" xmlns="http://www.w3.org/2000/svg">
<path d="M12.889 28.4445C13.6254 28.4445 14.2223 27.8475 14.2223 27.1112C14.2223 26.3748 13.6254 25.7778 12.889 25.7778C12.1526 25.7778 11.5557 26.3748 11.5557 27.1112C11.5557 27.8475 12.1526 28.4445 12.889 28.4445Z" fill="#EC7E62" stroke="#EC7E62" stroke-width="2" stroke-linecap="round" stroke-linejoin="round"/>
<path d="M25.3333 28.4445C26.0697 28.4445 26.6667 27.8475 26.6667 27.1112C26.6667 26.3748 26.0697 25.7778 25.3333 25.7778C24.597 25.7778 24 26.3748 24 27.1112C24 27.8475 24.597 28.4445 25.3333 28.4445Z" fill="#EC7E62" stroke="#EC7E62" stroke-width="2" stroke-linecap="round" stroke-linejoin="round"/>
<path d="M2.6665 2.66675H7.51499L10.7635 18.536C10.8743 19.0816 11.1779 19.5718 11.6211 19.9206C12.0643 20.2694 12.6189 20.4548 13.1877 20.4441H24.9695C25.5384 20.4548 26.093 20.2694 26.5361 19.9206C26.9793 19.5718 27.2829 19.0816 27.3938 18.536L29.3332 8.59253H8.72711" stroke="#EC7E62" stroke-width="2" stroke-linecap="round" stroke-linejoin="round"/>
</svg>
