<svg width="43" height="45" viewBox="0 0 43 45" fill="none" xmlns="http://www.w3.org/2000/svg">
<path d="M24.1191 8.43579H35.4483V16.3845" stroke="#A25956" stroke-width="2" stroke-linecap="round"/>
<path d="M10.6317 8.43579H2L2.53948 39.7008C2.53948 40.9372 3.07896 43.4102 5.23689 43.4102H14.9476" stroke="#A25956" stroke-width="2" stroke-linecap="round"/>
<path d="M2.53906 37.0513H14.9471" stroke="#A25956" stroke-width="2" stroke-linecap="round"/>
<path d="M13.8691 14.2648V6.3161C13.8691 4.54971 14.8402 1.01695 18.7245 1.01695C20.5228 0.84031 24.1193 1.97079 24.1193 7.90584V14.2648" stroke="#A25956" stroke-width="2" stroke-linecap="round"/>
<path fill-rule="evenodd" clip-rule="evenodd" d="M42.9995 17.4443H16.0254V39.9999C16.0254 42.7613 18.264 44.9999 21.0254 44.9999H37.9995C40.7609 44.9999 42.9995 42.7613 42.9995 39.9999V17.4443ZM25.6569 20.624C25.6569 20.0717 25.2092 19.624 24.6569 19.624C24.1047 19.624 23.6569 20.0717 23.6569 20.624V25.9232C23.6569 26.9215 23.9917 28.2432 25.0072 29.3238C26.0433 30.4263 27.6785 31.1625 30.0518 31.1625C30.9444 31.1625 32.3274 31.02 33.5946 30.3977C34.9029 29.7552 36.0988 28.5869 36.4325 26.6204L36.4466 26.5373V26.4531V20.624C36.4466 20.0717 35.9989 19.624 35.4466 19.624C34.8943 19.624 34.4466 20.0717 34.4466 20.624V26.3641C34.2247 27.5285 33.5442 28.1943 32.713 28.6025C31.8222 29.04 30.7775 29.1625 30.0518 29.1625C28.1091 29.1625 27.047 28.5738 26.4646 27.9542C25.8617 27.3126 25.6569 26.5145 25.6569 25.9232V20.624Z" fill="#A25956"/>
</svg>
