<svg width="133" height="37" viewBox="0 0 133 37" fill="none" xmlns="http://www.w3.org/2000/svg">
<rect width="133" height="37" fill="black"/>
<path d="M15.6591 13.9091C15.5568 13.0455 15.142 12.375 14.4148 11.8977C13.6875 11.4205 12.7955 11.1818 11.7386 11.1818C10.9659 11.1818 10.2898 11.3068 9.71023 11.5568C9.13636 11.8068 8.6875 12.1506 8.36364 12.5881C8.04545 13.0256 7.88636 13.5227 7.88636 14.0795C7.88636 14.5455 7.99716 14.946 8.21875 15.2812C8.44602 15.6108 8.7358 15.8864 9.08807 16.108C9.44034 16.3239 9.80966 16.5028 10.196 16.6449C10.5824 16.7812 10.9375 16.892 11.2614 16.9773L13.0341 17.4545C13.4886 17.5739 13.9943 17.7386 14.5511 17.9489C15.1136 18.1591 15.6506 18.446 16.1619 18.8097C16.679 19.1676 17.1051 19.6278 17.4403 20.1903C17.7756 20.7528 17.9432 21.4432 17.9432 22.2614C17.9432 23.2045 17.696 24.0568 17.2017 24.8182C16.7131 25.5795 15.9972 26.1847 15.054 26.6335C14.1165 27.0824 12.9773 27.3068 11.6364 27.3068C10.3864 27.3068 9.30398 27.1051 8.3892 26.7017C7.48011 26.2983 6.7642 25.7358 6.24148 25.0142C5.72443 24.2926 5.43182 23.4545 5.36364 22.5H7.54545C7.60227 23.1591 7.82386 23.7045 8.21023 24.1364C8.60227 24.5625 9.09659 24.8807 9.69318 25.0909C10.2955 25.2955 10.9432 25.3977 11.6364 25.3977C12.4432 25.3977 13.1676 25.267 13.8097 25.0057C14.4517 24.7386 14.9602 24.3693 15.3352 23.8977C15.7102 23.4205 15.8977 22.8636 15.8977 22.2273C15.8977 21.6477 15.7358 21.1761 15.4119 20.8125C15.0881 20.4489 14.6619 20.1534 14.1335 19.9261C13.6051 19.6989 13.0341 19.5 12.4205 19.3295L10.2727 18.7159C8.90909 18.3239 7.82955 17.7642 7.03409 17.0369C6.23864 16.3097 5.84091 15.358 5.84091 14.1818C5.84091 13.2045 6.10511 12.3523 6.63352 11.625C7.16761 10.892 7.88352 10.3239 8.78125 9.92045C9.68466 9.51136 10.6932 9.30682 11.8068 9.30682C12.9318 9.30682 13.9318 9.50852 14.8068 9.91193C15.6818 10.3097 16.375 10.8551 16.8864 11.5483C17.4034 12.2415 17.6761 13.0284 17.7045 13.9091H15.6591ZM36.1456 18.2727C36.1456 20.1136 35.8132 21.7045 35.1484 23.0455C34.4837 24.3864 33.5717 25.4205 32.4126 26.1477C31.2536 26.875 29.9297 27.2386 28.4411 27.2386C26.9524 27.2386 25.6286 26.875 24.4695 26.1477C23.3104 25.4205 22.3984 24.3864 21.7337 23.0455C21.0689 21.7045 20.7365 20.1136 20.7365 18.2727C20.7365 16.4318 21.0689 14.8409 21.7337 13.5C22.3984 12.1591 23.3104 11.125 24.4695 10.3977C25.6286 9.67045 26.9524 9.30682 28.4411 9.30682C29.9297 9.30682 31.2536 9.67045 32.4126 10.3977C33.5717 11.125 34.4837 12.1591 35.1484 13.5C35.8132 14.8409 36.1456 16.4318 36.1456 18.2727ZM34.1001 18.2727C34.1001 16.7614 33.8473 15.4858 33.3416 14.446C32.8416 13.4062 32.1626 12.6193 31.3047 12.0852C30.4524 11.5511 29.4979 11.2841 28.4411 11.2841C27.3842 11.2841 26.4268 11.5511 25.5689 12.0852C24.7166 12.6193 24.0376 13.4062 23.532 14.446C23.032 15.4858 22.782 16.7614 22.782 18.2727C22.782 19.7841 23.032 21.0597 23.532 22.0994C24.0376 23.1392 24.7166 23.9261 25.5689 24.4602C26.4268 24.9943 27.3842 25.2614 28.4411 25.2614C29.4979 25.2614 30.4524 24.9943 31.3047 24.4602C32.1626 23.9261 32.8416 23.1392 33.3416 22.0994C33.8473 21.0597 34.1001 19.7841 34.1001 18.2727ZM39.6996 27V9.54545H41.8132V25.125H49.9268V27H39.6996ZM58.5859 27H53.1996V9.54545H58.8246C60.5178 9.54545 61.9666 9.89489 63.1712 10.5938C64.3757 11.2869 65.299 12.2841 65.9411 13.5852C66.5831 14.8807 66.9041 16.4318 66.9041 18.2386C66.9041 20.0568 66.5803 21.6222 65.9325 22.9347C65.2848 24.2415 64.3416 25.2472 63.103 25.9517C61.8643 26.6506 60.3587 27 58.5859 27ZM55.3132 25.125H58.4496C59.8928 25.125 61.0888 24.8466 62.0376 24.2898C62.9865 23.733 63.6939 22.9403 64.1598 21.9119C64.6257 20.8835 64.8587 19.6591 64.8587 18.2386C64.8587 16.8295 64.6286 15.6165 64.1683 14.5994C63.7081 13.5767 63.0206 12.7926 62.1058 12.2472C61.1911 11.696 60.0518 11.4205 58.6882 11.4205H55.3132V25.125ZM91.9268 18.2727C91.9268 20.1136 91.5945 21.7045 90.9297 23.0455C90.2649 24.3864 89.353 25.4205 88.1939 26.1477C87.0348 26.875 85.7109 27.2386 84.2223 27.2386C82.7337 27.2386 81.4098 26.875 80.2507 26.1477C79.0916 25.4205 78.1797 24.3864 77.5149 23.0455C76.8501 21.7045 76.5178 20.1136 76.5178 18.2727C76.5178 16.4318 76.8501 14.8409 77.5149 13.5C78.1797 12.1591 79.0916 11.125 80.2507 10.3977C81.4098 9.67045 82.7337 9.30682 84.2223 9.30682C85.7109 9.30682 87.0348 9.67045 88.1939 10.3977C89.353 11.125 90.2649 12.1591 90.9297 13.5C91.5945 14.8409 91.9268 16.4318 91.9268 18.2727ZM89.8814 18.2727C89.8814 16.7614 89.6286 15.4858 89.1229 14.446C88.6229 13.4062 87.9439 12.6193 87.0859 12.0852C86.2337 11.5511 85.2791 11.2841 84.2223 11.2841C83.1655 11.2841 82.2081 11.5511 81.3501 12.0852C80.4979 12.6193 79.8189 13.4062 79.3132 14.446C78.8132 15.4858 78.5632 16.7614 78.5632 18.2727C78.5632 19.7841 78.8132 21.0597 79.3132 22.0994C79.8189 23.1392 80.4979 23.9261 81.3501 24.4602C82.2081 24.9943 83.1655 25.2614 84.2223 25.2614C85.2791 25.2614 86.2337 24.9943 87.0859 24.4602C87.9439 23.9261 88.6229 23.1392 89.1229 22.0994C89.6286 21.0597 89.8814 19.7841 89.8814 18.2727ZM106.935 9.54545H109.049V21.1023C109.049 22.2955 108.768 23.3608 108.205 24.2983C107.648 25.2301 106.862 25.9659 105.844 26.5057C104.827 27.0398 103.634 27.3068 102.265 27.3068C100.896 27.3068 99.7024 27.0398 98.6854 26.5057C97.6683 25.9659 96.8786 25.2301 96.3161 24.2983C95.7592 23.3608 95.4808 22.2955 95.4808 21.1023V9.54545H97.5945V20.9318C97.5945 21.7841 97.782 22.5426 98.157 23.2074C98.532 23.8665 99.0661 24.3864 99.7592 24.767C100.458 25.142 101.293 25.3295 102.265 25.3295C103.237 25.3295 104.072 25.142 104.771 24.767C105.469 24.3864 106.004 23.8665 106.373 23.2074C106.748 22.5426 106.935 21.7841 106.935 20.9318V9.54545ZM112.315 11.4205V9.54545H125.406V11.4205H119.918V27H117.804V11.4205H112.315Z" fill="white"/>
</svg>
