<svg width="143" height="40" viewBox="0 0 143 40" fill="none" xmlns="http://www.w3.org/2000/svg">
<path fill-rule="evenodd" clip-rule="evenodd" d="M114.296 7.29845C113.098 7.99828 110.702 8.55814 110.702 5.19897C110.702 3.79931 109.984 1 107.109 1C105.312 1 101.36 2.25969 99.9223 7.29845C98.7245 10.7976 97.7663 18.6357 103.516 21.9948C105.312 23.0446 109.624 23.6744 112.499 17.7959C113.098 17.096 114.296 16.5362 114.296 19.8954C114.296 22.6947 113.397 28.7132 109.804 30.3928C108.606 30.3928 106.211 29.9729 106.211 28.2933C105.612 27.2435 104.055 25.564 102.618 27.2435C101.12 28.6432 98.8445 32.4923 101.719 36.6912C102.618 37.741 105.313 39.6305 108.906 38.7907C112.2 38.7907 118.967 36.2713 119.686 26.1938V7.29845C119.686 5.19897 119.147 1.20995 116.991 2.04974C116.092 1.69983 114.295 2.25969 114.296 7.29845ZM108.446 9.39773H104.404V14.6464H112.489V9.39773H108.446Z" fill="#A25956"/>
<path d="M114.296 7.29845L114.548 7.73016L114.796 7.5854L114.796 7.29843L114.296 7.29845ZM99.9223 7.29845L100.395 7.46038L100.4 7.44809L100.403 7.43561L99.9223 7.29845ZM103.516 21.9948L103.263 22.4265L103.263 22.4266L103.516 21.9948ZM112.499 17.7959L112.119 17.4708L112.078 17.5191L112.05 17.5762L112.499 17.7959ZM114.296 19.8954L113.796 19.8954L113.796 19.8954L114.296 19.8954ZM109.804 30.3928V30.8928H109.915L110.016 30.8457L109.804 30.3928ZM106.211 28.2933H106.711V28.1607L106.645 28.0455L106.211 28.2933ZM102.618 27.2435L102.959 27.6088L102.979 27.5898L102.997 27.5686L102.618 27.2435ZM101.719 36.6912L101.307 36.9737L101.322 36.9959L101.339 37.0163L101.719 36.6912ZM108.906 38.7907V38.2907H108.848L108.792 38.3038L108.906 38.7907ZM119.686 26.1938L120.185 26.2294L120.186 26.2116V26.1938H119.686ZM119.686 7.29845L119.186 7.29843V7.29845H119.686ZM116.991 2.04974L116.809 2.51566L116.991 2.58632L117.172 2.51565L116.991 2.04974ZM104.404 9.39773V8.89773H103.904V9.39773H104.404ZM104.404 14.6464H103.904V15.1464H104.404V14.6464ZM112.489 14.6464V15.1464H112.989V14.6464H112.489ZM112.489 9.39773H112.989V8.89773H112.489V9.39773ZM110.202 5.19897C110.202 6.09159 110.36 6.78525 110.666 7.29822C110.979 7.82559 111.429 8.12741 111.925 8.25509C112.866 8.49699 113.91 8.10274 114.548 7.73016L114.043 6.86674C113.483 7.19399 112.73 7.42959 112.174 7.28658C111.922 7.22181 111.698 7.07749 111.525 6.78694C111.344 6.48198 111.202 5.98593 111.202 5.19897H110.202ZM107.109 1.5C108.348 1.5 109.096 2.08763 109.558 2.8369C110.036 3.61278 110.202 4.565 110.202 5.19897H111.202C111.202 4.43328 111.009 3.28601 110.409 2.31233C109.793 1.31202 108.744 0.5 107.109 0.5V1.5ZM100.403 7.43561C101.768 2.65064 105.492 1.5 107.109 1.5V0.5C105.132 0.5 100.951 1.86874 99.4415 7.1613L100.403 7.43561ZM103.768 21.5631C101.072 19.9881 99.9283 17.3596 99.6104 14.6411C99.2915 11.914 99.815 9.15578 100.395 7.46038L99.4492 7.13652C98.8318 8.94026 98.2773 11.8507 98.6172 14.7572C98.9581 17.6723 100.21 20.6424 103.263 22.4265L103.768 21.5631ZM112.05 17.5762C110.662 20.415 108.967 21.6096 107.474 22.0106C105.96 22.4168 104.57 22.0315 103.768 21.5631L103.263 22.4266C104.258 23.0079 105.922 23.4624 107.733 22.9764C109.563 22.4851 111.462 21.0553 112.948 18.0155L112.05 17.5762ZM114.796 19.8954C114.796 19.0326 114.719 18.3837 114.578 17.9092C114.44 17.4439 114.214 17.0656 113.851 16.8788C113.47 16.6831 113.086 16.7702 112.809 16.9092C112.533 17.0474 112.295 17.2651 112.119 17.4708L112.879 18.1209C113.002 17.9767 113.139 17.862 113.256 17.8033C113.313 17.7752 113.35 17.7669 113.37 17.7653C113.386 17.7641 113.39 17.7664 113.393 17.7681C113.404 17.7738 113.515 17.8417 113.62 18.1943C113.722 18.5377 113.796 19.0785 113.796 19.8954H114.796ZM110.016 30.8457C112.003 29.9168 113.185 27.8253 113.873 25.7191C114.566 23.5947 114.796 21.3363 114.796 19.8953L113.796 19.8954C113.796 21.2537 113.576 23.4042 112.922 25.4088C112.262 27.4316 111.198 29.1892 109.592 29.9398L110.016 30.8457ZM105.711 28.2933C105.711 29.4323 106.542 30.0876 107.364 30.4338C108.194 30.7826 109.164 30.8928 109.804 30.8928V29.8928C109.247 29.8928 108.42 29.793 107.752 29.512C107.078 29.2283 106.711 28.8338 106.711 28.2933H105.711ZM102.997 27.5686C103.3 27.2151 103.57 27.0819 103.787 27.0439C104.007 27.0055 104.242 27.0532 104.494 27.1867C105.019 27.4648 105.499 28.0551 105.777 28.5411L106.645 28.0455C106.323 27.4817 105.726 26.7074 104.963 26.3031C104.571 26.0955 104.11 25.9726 103.615 26.0588C103.118 26.1455 102.654 26.4322 102.238 26.9185L102.997 27.5686ZM102.132 36.4088C100.779 34.4332 100.649 32.5676 101.015 31.0337C101.386 29.48 102.272 28.2512 102.959 27.6088L102.276 26.8783C101.466 27.6355 100.465 29.0311 100.043 30.8015C99.6152 32.5919 99.7844 34.7503 101.307 36.9737L102.132 36.4088ZM108.792 38.3038C105.429 39.0899 102.912 37.3158 102.099 36.3661L101.339 37.0163C102.323 38.1661 105.196 40.1711 109.02 39.2776L108.792 38.3038ZM119.187 26.1582C118.836 31.0798 117.016 34.0996 114.935 35.8925C112.84 37.6973 110.443 38.2907 108.906 38.2907V39.2907C110.662 39.2907 113.296 38.6244 115.588 36.6501C117.893 34.664 119.817 31.3853 120.185 26.2294L119.187 26.1582ZM119.186 7.29845V26.1938H120.186V7.29845H119.186ZM117.172 2.51565C117.55 2.36849 117.797 2.43742 118.005 2.6077C118.253 2.80995 118.484 3.19198 118.675 3.73707C119.053 4.81582 119.186 6.27413 119.186 7.29843L120.186 7.29847C120.186 6.22329 120.05 4.63735 119.619 3.40666C119.405 2.79704 119.097 2.20806 118.638 1.83295C118.139 1.42588 117.51 1.3111 116.809 1.58383L117.172 2.51565ZM114.796 7.29843C114.795 4.81618 115.242 3.55335 115.702 2.95923C116.128 2.40799 116.567 2.42136 116.809 2.51566L117.172 1.58383C116.516 1.32821 115.607 1.44656 114.911 2.34746C114.247 3.20548 113.795 4.74196 113.796 7.29847L114.796 7.29843ZM104.404 9.89773H108.446V8.89773H104.404V9.89773ZM104.904 14.6464V9.39773H103.904V14.6464H104.904ZM112.489 14.1464H104.404V15.1464H112.489V14.1464ZM111.989 9.39773V14.6464H112.989V9.39773H111.989ZM108.446 9.89773H112.489V8.89773H108.446V9.89773Z" fill="#A25956"/>
<path d="M131.354 1C137.822 1 140.637 5.19897 141.236 7.29845C141.954 10.6576 139.738 11.4974 138.541 11.4974C137.822 11.4974 135.846 10.0978 134.947 9.39793C133.51 8.55814 131.953 8.34819 131.354 8.34819C129.198 8.34819 128.06 9.04802 127.761 9.39793C125.605 11.9173 132.851 13.247 136.744 13.5969C141.775 15.2765 142.433 19.1955 142.134 20.9451C141.415 25.9839 135.846 27.9434 133.151 28.2933C124.527 29.1331 122.371 24.4442 122.371 21.9948C122.371 16.9561 125.964 17.096 127.761 17.7959C129.917 19.4755 132.252 19.8954 133.151 19.8954C136.744 19.8954 137.043 18.4957 136.744 17.7959C136.744 16.1163 130.755 14.2967 127.761 13.5969C124.167 12.7571 123.868 9.04802 124.167 7.29845C124.886 2.25969 129.258 1 131.354 1Z" fill="#A25956" stroke="#A25956"/>
<path d="M5.58731 13.596C2.71265 6.0379 4.98842 2.74871 6.48564 2.04888C10.0785 1.20871 10.9775 3.79829 10.9778 5.1981C11.6965 13.5957 14.8703 17.0953 16.3674 17.7955C18.523 19.4751 20.2603 18.4953 20.8595 17.7955C22.2968 13.5965 20.8595 11.1471 19.9611 10.4473C17.0865 9.60748 17.5653 6.59791 18.1641 5.1981C18.8824 1.83893 21.4581 1.69896 22.6561 2.04888C24.8121 2.04888 24.7522 6.24784 24.4528 8.34733C22.2968 26.8228 19.362 33.5411 18.1641 34.5909C12.4144 38.7898 7.38387 36.3404 5.58731 34.5909C2.71254 31.2317 4.38949 27.5926 5.58731 26.1929C9.89918 23.6736 12.1751 27.2427 12.7741 29.3422C13.4927 31.8615 15.4691 32.4914 16.3674 32.4914C17.8047 32.4914 18.1641 30.3919 18.1641 29.3422C18.1641 28.5024 16.9663 26.8928 16.3674 26.1929C10.6181 21.994 6.78512 16.0454 5.58731 13.596Z" fill="#A25956" stroke="#A25956"/>
<path d="M52.3008 5.19897C52.3008 1.83979 55.2952 1 56.7924 1C58.9484 1 59.4874 3.79931 59.4874 5.19897V17.7959C60.2061 19.4755 62.1824 19.8954 63.0807 19.8954C65.2367 19.8954 66.3746 18.4957 66.6741 17.7959V5.19897C66.6741 1.83979 68.4707 1 69.369 1C71.525 1 72.064 3.79931 72.064 5.19897V21.9948C72.064 27.0336 70.2674 28.2933 69.369 28.2933C67.2131 28.2933 66.6741 24.0943 66.6741 21.9948C63.0807 27.0336 57.9902 26.8936 55.8941 26.1938C53.0194 25.354 52.3008 21.6449 52.3008 19.8954V5.19897Z" fill="#A25956" stroke="#A25956"/>
<path d="M95.4214 24.094C95.4214 27.4532 92.427 28.293 90.9297 28.293C88.7737 28.293 88.2348 25.4937 88.2348 24.094V11.4971C87.5161 9.81751 85.5398 9.39761 84.6414 9.39761C82.4854 9.39761 81.3476 10.7973 81.0481 11.4971V24.094C81.0481 27.4532 79.2515 28.293 78.3531 28.293C76.1971 28.293 75.6581 25.4937 75.6581 24.094V7.29813C75.6581 2.25937 77.4548 0.999678 78.3531 0.999678C80.5091 0.999678 81.0481 5.19864 81.0481 7.29813C84.6414 2.25937 89.732 2.39933 91.8281 3.09916C94.7027 3.93896 95.4214 7.64804 95.4214 9.39761V24.094Z" fill="#A25956" stroke="#A25956"/>
<path fill-rule="evenodd" clip-rule="evenodd" d="M37.9279 1C34.3346 1 27.1479 3.72933 27.1479 14.6466C27.1479 19.8954 29.4836 29.9729 38.8262 28.2933C42.4196 28.2933 49.4265 25.564 48.7079 14.6466C48.7079 10.0978 46.5519 1 37.9279 1ZM37.9277 11.4976H32.5377V17.7961H43.3176V11.4976H37.9277Z" fill="#A25956"/>
<path d="M38.8262 28.2933V27.7933H38.7816L38.7378 27.8012L38.8262 28.2933ZM48.7079 14.6466H48.2079V14.6631L48.2089 14.6795L48.7079 14.6466ZM32.5377 11.4976V10.9976H32.0377V11.4976H32.5377ZM32.5377 17.7961H32.0377V18.2961H32.5377V17.7961ZM43.3176 17.7961V18.2961H43.8176V17.7961H43.3176ZM43.3176 11.4976H43.8176V10.9976H43.3176V11.4976ZM27.6479 14.6466C27.6479 9.3069 29.4004 6.0374 31.5272 4.09886C33.6694 2.14633 36.2393 1.5 37.9279 1.5V0.5C36.0232 0.5 33.2031 1.21834 30.8536 3.3598C28.4888 5.51525 26.6479 9.06907 26.6479 14.6466H27.6479ZM38.7378 27.8012C36.4966 28.2041 34.7125 27.8974 33.2893 27.1633C31.8605 26.4264 30.7553 25.2378 29.9141 23.8138C28.2238 20.9523 27.6479 17.2192 27.6479 14.6466H26.6479C26.6479 17.3228 27.2399 21.2528 29.0531 24.3224C29.9637 25.8639 31.1941 27.2078 32.8309 28.052C34.4732 28.8991 36.4846 29.2223 38.9147 28.7854L38.7378 27.8012ZM48.2089 14.6795C48.5606 20.021 47.0224 23.2789 45.036 25.205C43.0332 27.147 40.5155 27.7933 38.8262 27.7933V28.7933C40.7303 28.7933 43.5127 28.0749 45.7321 25.9229C47.9679 23.755 49.5738 20.1896 49.2068 14.6138L48.2089 14.6795ZM37.9279 1.5C42.022 1.5 44.5686 3.64174 46.1172 6.36468C47.6798 9.11199 48.2079 12.4319 48.2079 14.6466H49.2079C49.2079 12.3125 48.6579 8.8091 46.9865 5.8703C45.3012 2.90714 42.4577 0.5 37.9279 0.5V1.5ZM32.5377 11.9976H37.9277V10.9976H32.5377V11.9976ZM33.0377 17.7961V11.4976H32.0377V17.7961H33.0377ZM43.3176 17.2961H32.5377V18.2961H43.3176V17.2961ZM42.8176 11.4976V17.7961H43.8176V11.4976H42.8176ZM37.9277 11.9976H43.3176V10.9976H37.9277V11.9976Z" fill="#A25956"/>
</svg>
