<svg width="1280" height="5" viewBox="0 0 1280 5" fill="none" xmlns="http://www.w3.org/2000/svg">
<path fill-rule="evenodd" clip-rule="evenodd" d="M0 0V5H3.68028C5.39774 1.83148 10.1576 -2.60443 15.4572 5H19.8735C21.8363 2.02951 27.0868 -2.12915 32.3864 5H36.8028C38.2749 2.4256 42.6912 -1.17859 48.5796 5H52.996C54.7134 2.22757 59.4733 -1.65387 64.7729 5H69.1892C70.6613 2.62363 74.9304 -0.703308 80.23 5H85.3824C86.6092 2.4256 90.3876 -1.17859 95.6872 5H101.576C103.048 2.4256 107.464 -1.17859 113.353 5H117.769C118.996 2.22757 122.921 -1.65387 128.81 5H133.226C134.698 2.02951 139.262 -2.12915 145.739 5H150.155C151.873 2.02951 156.633 -2.12915 161.932 5H166.348C168.066 2.22757 172.679 -1.65387 177.389 5H182.542C184.259 2.22757 189.019 -1.65387 194.319 5H199.471C200.943 2.4256 205.212 -1.17859 210.512 5H214.928C216.646 2.22757 221.258 -1.65387 225.969 5H231.121C232.839 2.02951 237.599 -2.12915 242.898 5H248.051C249.768 2.82166 254.381 -0.228027 259.091 5H264.244C265.961 2.4256 270.574 -1.17859 275.285 5H279.701C281.173 2.4256 285.442 -1.17859 290.742 5H296.63C298.348 2.4256 302.813 -1.17859 306.935 5H312.087C314.05 2.22757 319.154 -1.65387 323.864 5H327.545C329.262 2.4256 334.022 -1.17859 339.321 5H344.474C345.946 2.4256 350.215 -1.17859 355.515 5H359.931C361.894 2.02951 366.997 -2.12915 371.708 5H376.86C378.823 2.22757 383.779 -1.65387 387.901 5H392.317C394.28 2.22757 399.384 -1.65387 404.094 5H408.511C410.473 2.02951 415.577 -2.12915 420.288 5H424.704C426.667 2.22757 431.77 -1.65387 436.481 5H440.897C442.369 2.22757 446.785 -1.65387 452.674 5H457.09C458.808 2.22757 463.568 -1.65387 468.867 5H473.283C475.001 2.22757 479.761 -1.65387 485.06 5H489.477C491.194 2.4256 495.954 -1.17859 501.254 5H505.67C507.633 2.4256 512.736 -1.17859 517.447 5H521.863C523.826 2.22757 529.076 -1.65387 534.376 5H538.056C540.019 2.4256 545.122 -1.17859 549.833 5H554.25C556.458 2.22757 561.905 -1.65387 566.026 5H570.443C572.406 2.22757 577.509 -1.65387 582.22 5H586.636C588.599 2.4256 593.702 -1.17859 598.413 5H602.829C604.547 2.4256 609.307 -1.17859 614.606 5H619.022C620.985 2.4256 626.089 -1.17859 630.799 5H635.216C637.178 2.4256 642.282 -1.17859 646.992 5H651.409C653.372 2.4256 658.475 -1.17859 663.186 5H667.602C669.81 2.4256 675.257 -1.17859 679.379 5H683.795C686.003 2.4256 691.45 -1.17859 695.572 5H699.988C701.951 2.4256 707.055 -1.17859 711.765 5H716.182C718.39 2.4256 723.837 -1.17859 727.959 5H732.375C734.338 2.4256 739.441 -1.17859 744.152 5H748.568C750.531 2.4256 755.634 -1.17859 760.345 5H764.761C766.97 2.4256 772.416 -1.17859 776.538 5H780.955C782.917 2.4256 788.021 -1.17859 792.731 5H797.148C798.865 2.4256 803.625 -1.17859 808.925 5H813.341C815.304 2.4256 820.407 -1.17859 825.118 5H829.534C831.497 2.4256 836.6 -1.17859 841.311 5H845.727C847.445 2.4256 852.205 -1.17859 857.504 5H861.921C863.638 2.4256 868.398 -1.17859 873.698 5H878.114C879.831 2.4256 884.591 -1.17859 889.891 5H894.307C896.27 2.4256 901.373 -1.17859 906.084 5H910.5C912.463 2.4256 917.566 -1.17859 922.277 5H926.693C928.902 2.4256 934.348 -1.17859 938.47 5H942.887C944.85 2.4256 949.953 -1.17859 954.664 5H959.08C961.043 2.4256 966.146 -1.17859 970.857 5H975.273C977.236 2.22757 982.339 -1.65387 987.05 5H991.466C993.184 2.4256 997.944 -1.17859 1003.24 5H1007.66C1009.38 2.4256 1014.14 -1.17859 1019.44 5H1023.85C1025.82 2.4256 1030.92 -1.17859 1035.63 5H1040.05C1042.01 2.4256 1047.11 -1.17859 1051.82 5H1056.24C1058.2 2.4256 1063.31 -1.17859 1068.02 5H1072.43C1074.4 2.4256 1079.5 -1.17859 1084.21 5H1088.63C1090.59 2.22757 1095.69 -1.65387 1100.4 5H1104.82C1106.78 2.4256 1111.89 -1.17859 1116.6 5H1121.01C1122.97 2.4256 1128.08 -1.17859 1132.79 5H1137.21C1138.92 2.22757 1143.68 -1.65387 1148.98 5H1153.4C1155.12 2.4256 1159.88 -1.17859 1165.18 5H1169.59C1171.55 2.4256 1176.66 -1.17859 1181.37 5H1185.78C1187.75 2.4256 1192.85 -1.17859 1197.56 5H1201.98C1203.94 2.4256 1209.04 -1.17859 1213.76 5H1218.17C1220.13 2.4256 1225.24 -1.17859 1229.95 5H1234.36C1236.33 2.4256 1241.43 -1.17859 1246.14 5H1250.56C1252.52 2.62363 1257.62 -0.703308 1262.33 5H1266.75C1268.47 2.4256 1273.23 -1.17859 1278.53 5H1280L1279.98 0H0Z" fill="#F2F2F2"/>
</svg>
